# xmcd
#
# Track frame offsets:
#	182
#	13647
#	25320
#	45017
#	60142
#	73310
#	89660
#	104990
#	121350
#	131855
#	145435
#	163492
#	180800
#	196687
#	207022
#	220265
#	238837
#	254550
#
# Disc length: 3519 seconds
# Revision: 4
# Processed by: cddbd v1.5.2PL0 Copyright (c) Steve Scherf et al.
# Submitted via: dBpowerAMP V12.0
#
DISCID=0d0dbd12
DTITLE=Various Artist - Country Crossroads (1 of 2)
DYEAR=1993
DGENRE=Country
TTITLE0=Dr. Hook - When You're In Love With A Beautiful Woman
TTITLE1=Crystal Gayle - Don't It Make My Brown Eyes Blue
TTITLE2=Eddie Rabbitt - Suspicions
TTITLE3=B. J. Thomas - Another Somebody Done Somebody Wrong Song
TTITLE4=Terri Gibbs - Somebody's Knockin'
TTITLE5=Johnny Lee - Lookin' For Love
TTITLE6=Juice Newton - Queen Of Hearts
TTITLE7=Nitty Gritty Dirt Band - Mr. Bojangles
TTITLE8=Eric Weissberg and Steve Mandell - Dueling Banjos
TTITLE9=Glen Campbell - Southern Nights
TTITLE10=Eddie Rabbit and Crystal Gayle - You And I
TTITLE11=Don Mclean - Crying
TTITLE12=Jennifer Warnes - I Know A Heartache When I See One
TTITLE13=Billy "Crash" Craddock - Rub It In
TTITLE14=Ray Stevens - Misty
TTITLE15=Deborah Allen - Baby I Lied
TTITLE16=Kris Kristofferson - Why Me
TTITLE17=Tom T. Hall - I Love
EXTD=
EXTT0=
EXTT1=
EXTT2=
EXTT3=
EXTT4=
EXTT5=
EXTT6=
EXTT7=
EXTT8=
EXTT9=
EXTT10=
EXTT11=
EXTT12=
EXTT13=
EXTT14=
EXTT15=
EXTT16=
EXTT17=
PLAYORDER=
